<svg xmlns="http://www.w3.org/2000/svg" width="48" height="48" fill="#000" xmlns:v="https://vecta.io/nano"><path d="M38 32v2H28v-2h2v-4h6v4h2zm6-22v2h-2v2h-2v2h-4v-2h-2v-2h-2v-2h4V8h-2V6h-2V4h6v2h2v4h4zm0 10v-2H22v2h-2v24h2v2h22v-2h2V20h-2zm-2 22h-4v-6H28v6h-4V32h2v-4h2v-2h2v-2h2v-2h2v2h2v2h2v2h2v4h2v10zM14 14v2h-2v2H8v-4h6zM28 4v12h-4v-4h-2v-2h-4v2h-2V8h8V6H6v2h8v4h-2v-2H8v2H6v8h2v2h4v-2h2v6h2V16h2v-2h4v2h-2v2h-2v12H4v-2H2V4h2V2h22v2h2zM12 38v2h2v2h2v2h-6v-2H8v-4H4v-2h2v-2h2v-2h4v2h2v2h2v2h-4z"/></svg>