<svg width="48" height="48" viewBox="0 0 48 48" fill="none" xmlns="http://www.w3.org/2000/svg">
<path d="M38 32V34H28V32H30V28H36V32H38Z" fill="black"/>
<path d="M44 10V12H42V14H40V16H36V14H34V12H32V10H36V8H34V6H32V4H38V6H40V10H44Z" fill="black"/>
<path d="M44 20V18H22V20H20V44H22V46H44V44H46V20H44ZM42 42H38V36H28V42H24V32H26V28H28V26H30V24H32V22H34V24H36V26H38V28H40V32H42V42Z" fill="black"/>
<path d="M14 14V16H12V18H8V14H14Z" fill="black"/>
<path d="M28 4V16H24V12H22V10H18V12H16V8H24V6H6V8H14V12H12V10H8V12H6V20H8V22H12V20H14V26H16V16H18V14H22V16H20V18H18V30H4V28H2V4H4V2H26V4H28Z" fill="black"/>
<path d="M12 38V40H14V42H16V44H10V42H8V38H4V36H6V34H8V32H12V34H14V36H16V38H12Z" fill="black"/>
</svg>
